<svg id="Layer_1" data-name="Layer 1" xmlns="http://www.w3.org/2000/svg" width="1366" height="768" viewBox="0 0 1366 768"><defs><style>.cls-1{fill:#fff;}</style></defs><title>LOGO</title><path class="cls-1" d="M856.3,269.88H778.68V241.74a17.86,17.86,0,0,0-17.86-17.86H605.54a17.86,17.86,0,0,0-17.86,17.86v28.14H510.05a66.37,66.37,0,0,0-66.37,66.38V477.51a66.36,66.36,0,0,0,66.37,66.37H856.3a66.37,66.37,0,0,0,66.38-66.37V336.26A66.38,66.38,0,0,0,856.3,269.88Zm-173.62,255a123,123,0,1,1,123-123A123,123,0,0,1,682.68,524.88Zm170-211a11,11,0,1,1,11-11A11,11,0,0,1,852.68,313.88Z"/><path class="cls-1" d="M590.76,420.2c14.44-.34,15.07-25.09,36.9-36.9,15.57-8.42,37.43-7.82,52,1.43,19.46,12.4,15.36,33.74,28.3,36.9,19.3,4.72,34.7-41.17,61.62-39.05a29.91,29.91,0,0,1,11.94,3.84,99,99,0,1,0-195.23,33.09A13.44,13.44,0,0,0,590.76,420.2Z"/></svg>
