<svg id="Layer_1" data-name="Layer 1" xmlns="http://www.w3.org/2000/svg" width="260" height="175.44" viewBox="0 0 260 175.44"><defs><style>.cls-1{fill:#fff;}</style></defs><title>LOGO</title><path class="cls-1" d="M221.63,27.4H180.34v-15a9.5,9.5,0,0,0-9.5-9.5H88.24a9.5,9.5,0,0,0-9.49,9.5v15H37.46A35.31,35.31,0,0,0,2.15,62.71v75.13a35.3,35.3,0,0,0,35.31,35.3H221.63a35.3,35.3,0,0,0,35.31-35.3V62.71A35.31,35.31,0,0,0,221.63,27.4ZM129.28,163A65.43,65.43,0,1,1,194.7,97.61,65.42,65.42,0,0,1,129.28,163ZM219.7,50.8A5.85,5.85,0,1,1,225.55,45,5.85,5.85,0,0,1,219.7,50.8Z"/><path class="cls-1" d="M80.38,107.36c7.69-.18,8-13.35,19.63-19.63,8.29-4.48,19.91-4.16,27.63.76,10.36,6.6,8.17,18,15.06,19.63,10.26,2.51,18.46-21.9,32.78-20.77a15.89,15.89,0,0,1,6.35,2A52.66,52.66,0,0,0,77.15,97.61,53.65,53.65,0,0,0,78,107,7.17,7.17,0,0,0,80.38,107.36Z"/></svg>
